<?xml version="1.0" encoding="UTF-8" standalone="no"?>
<svg
   xmlns:dc="http://purl.org/dc/elements/1.1/"
   xmlns:cc="http://creativecommons.org/ns#"
   xmlns:rdf="http://www.w3.org/1999/02/22-rdf-syntax-ns#"
   xmlns:svg="http://www.w3.org/2000/svg"
   xmlns="http://www.w3.org/2000/svg"
   xmlns:sodipodi="http://sodipodi.sourceforge.net/DTD/sodipodi-0.dtd"
   xmlns:inkscape="http://www.inkscape.org/namespaces/inkscape"
   inkscape:export-ydpi="96"
   inkscape:export-xdpi="96"
   inkscape:export-filename="/home/nathanreiner/Dokumente/Logo Scretches/n1.png"
   width="200mm"
   height="200mm"
   viewBox="0 0 200 200"
   version="1.1"
   id="svg8"
   inkscape:version="1.0 (6e3e5246a0, 2020-05-07)"
   sodipodi:docname="logo.svg">
  <defs
     id="defs2" />
  <sodipodi:namedview
     id="base"
     pagecolor="#ffffff"
     bordercolor="#666666"
     borderopacity="1.0"
     inkscape:pageopacity="0.0"
     inkscape:pageshadow="2"
     inkscape:zoom="0.53133182"
     inkscape:cx="258.68386"
     inkscape:cy="363.10266"
     inkscape:document-units="mm"
     inkscape:current-layer="layer1"
     inkscape:document-rotation="0"
     showgrid="false"
     inkscape:showpageshadow="false"
     inkscape:window-width="1920"
     inkscape:window-height="1043"
     inkscape:window-x="1600"
     inkscape:window-y="0"
     inkscape:window-maximized="1" />
  <metadata
     id="metadata5">
    <rdf:RDF>
      <cc:Work
         rdf:about="">
        <dc:format>image/svg+xml</dc:format>
        <dc:type
           rdf:resource="http://purl.org/dc/dcmitype/StillImage" />
        <dc:title />
      </cc:Work>
    </rdf:RDF>
  </metadata>
  <g
     inkscape:label="Ebene 1"
     inkscape:groupmode="layer"
     id="layer1">
    <circle
       style="fill:#417941;stroke-width:0;stroke-linejoin:round;paint-order:fill markers stroke;fill-opacity:1"
       id="path846"
       cx="100"
       cy="100"
       r="94.853416" />
    <g
       id="g2486"
       transform="translate(-12.895437,7.9593195)">
      <path
         d="m 67.174114,79.836401 c 1.032092,0.214577 2.280809,0.385871 3.260376,-0.165992 1.423353,-0.801878 11.973756,-4.696754 14.719512,-9.545463 0.383537,-0.67728 0.635775,-1.420926 0.953661,-2.131388 1.319191,-3.585493 1.98351,-7.339314 1.355738,-11.143583 -0.446222,-2.7041 -0.847849,-3.359989 -1.825998,-5.896279 -0.481986,-0.866754 -0.865309,-1.796259 -1.445956,-2.600264 -1.787109,-2.474564 -4.382851,-4.162288 -7.362655,-4.813642 -2.607008,-0.569864 -3.519263,-0.258333 -6.132301,0.02027 -7.890758,2.398966 -4.603104,1.156914 -17.598673,9.268253 -1.366943,0.853194 -3.772638,3.721642 -4.622411,5.020556 -1.733637,2.64994 -2.052703,4.01996 -3.158442,6.982775 -0.283057,1.296715 -0.658064,2.576724 -0.84917,3.890139 -0.556498,3.824664 -0.418422,8.031798 0.66258,11.76114 0.959687,3.31081 1.899079,4.531772 3.606337,7.518455 1.309418,1.460762 2.562622,2.973938 3.928256,4.382288 2.882723,2.972898 7.43731,7.095342 10.526638,9.788694 5.628106,4.90673 11.475384,9.56421 17.261784,14.2808 6.508478,5.64778 13.292188,11.41614 17.789573,18.89969 2.468687,4.10784 2.585517,5.29203 4.043157,9.74939 1.08674,5.50864 2.2361,11.89857 -2.836718,15.93768 -1.034029,0.82333 -4.473231,2.75482 -3.504179,1.85592 2.203466,-2.04394 4.842047,-3.56178 7.263077,-5.34268 -1.52292,0.0915 -3.04698,0.38345 -4.568759,0.27455 -3.513521,-0.25143 -6.439373,-1.35364 -9.484489,-3.08105 -1.517737,-0.86097 -2.8732,-1.98089 -4.309801,-2.97133 0,0 -10.831462,6.89597 -10.831462,6.89597 v 0 c 1.465797,1.05444 2.857733,2.22001 4.397394,3.16333 3.064393,1.87749 6.033767,3.24313 9.623512,3.74155 1.540227,0.21385 3.109955,0.0177 4.664932,0.0265 5.241044,-2.51116 10.562323,-4.86131 15.723133,-7.53348 1.21627,-0.62976 2.41209,-1.37229 3.3691,-2.35212 4.48941,-4.59644 3.08871,-11.3105 1.7696,-16.83822 -1.53583,-4.26834 -1.9245,-6.07424 -4.41902,-9.97692 -1.04566,-1.63594 -2.26695,-3.15813 -3.52506,-4.63693 -4.47509,-5.26008 -9.832399,-9.67186 -15.066892,-14.13385 -1.933551,-1.61035 -3.857037,-3.23288 -5.800659,-4.83107 C 77.353029,99.217931 69.662103,93.318578 63.542785,85.874735 62.363484,84.440177 61.366984,82.864634 60.279083,81.359583 58.631796,78.333723 57.9209,77.45986 57.019546,74.14533 55.676559,69.206792 56.029073,64.037461 57.51867,59.188746 c 0.502084,-1.172128 0.913482,-2.387401 1.506254,-3.516378 1.125366,-2.143332 2.515291,-4.019429 4.268311,-5.686187 0.804659,-0.765061 3.604094,-2.550631 2.594078,-2.089476 -25.284511,11.544488 -7.781567,4.540044 -6.234437,3.933725 2.407147,-0.451088 3.273102,-0.818904 5.725609,-0.479065 2.718538,0.376703 5.141648,1.724112 6.804594,3.922336 0.556347,0.735426 0.923372,1.59652 1.385057,2.394781 0.890741,2.358784 1.297585,3.014573 1.613307,5.544436 0.455647,3.651076 -0.358653,7.255791 -1.934821,10.541805 -0.421661,0.640476 -0.780232,1.327271 -1.264986,1.921428 -0.384265,0.470987 -1.867022,1.527979 -1.324925,1.252987 3.815289,-1.935425 7.459699,-4.190818 11.20218,-6.263526 0.329589,-0.182536 -0.620572,0.434361 -0.962546,0.592478 -0.25841,0.119481 -0.540163,0.191056 -0.821819,0.232556 -0.202153,0.02978 -0.408422,-0.01413 -0.612635,-0.02122 0,0 -12.287777,8.366964 -12.287777,8.366964 z"
         id="path2463"
         style="fill:#ffffff;fill-opacity:1;stroke:none;stroke-width:0.264999;stroke-linejoin:round;stroke-miterlimit:4;stroke-dasharray:none;stroke-opacity:1;paint-order:fill markers stroke" />
      <path
         d="m 106.27135,138.92281 c -4.75986,2.29961 -9.362702,4.90655 -14.012556,7.41738 -4.432588,2.32129 -2.298157,1.22581 -6.399027,3.29472 0,0 -10.644465,8.5293 -10.644465,8.5293 v 0 c 4.286319,-2.21309 2.080286,-1.06872 6.617274,-3.43469 4.222993,-2.2508 8.410728,-4.59913 12.786754,-6.54307 0,0 11.65202,-9.26364 11.65202,-9.26364 z"
         id="path2465"
         style="fill:#ffffff;fill-opacity:1;stroke:none;stroke-width:0.264999;stroke-linejoin:round;stroke-miterlimit:4;stroke-dasharray:none;stroke-opacity:1;paint-order:fill markers stroke" />
      <path
         d="m 102.39695,163.2745 c 2.30317,-0.71804 4.45745,-1.80604 6.54285,-3.00762 5.2995,-3.05352 10.56446,-6.16662 15.84335,-9.25563 1.87309,-1.09607 3.7131,-2.24994 5.61258,-3.29961 1.12296,-0.62057 -2.18776,1.341 -3.28164,2.01149 12.87324,-7.07237 26.28692,-13.07491 39.37913,-19.71639 0,0 10.16799,-8.16787 10.16799,-8.16787 v 0 c -4.53184,2.46041 -5.41223,2.97657 -10.32635,5.4602 -10.00803,5.05813 -20.20975,9.73267 -30.0849,15.05409 -5.75011,3.24449 -11.50318,6.48376 -17.25034,9.73349 -2.08666,1.1799 -8.23361,4.90296 -6.25108,3.55541 2.19437,-1.49155 4.6102,-2.62864 6.88845,-3.98863 0.84515,-0.50451 -1.71064,0.97569 -2.58814,1.42157 -0.58565,0.29759 -1.18899,0.56061 -1.79792,0.80709 -0.37541,0.15195 -0.76783,0.2579 -1.15176,0.38685 0,0 -11.70222,9.00556 -11.70222,9.00556 z"
         id="path2467"
         style="fill:#ffffff;fill-opacity:1;stroke:none;stroke-width:0.264999;stroke-linejoin:round;stroke-miterlimit:4;stroke-dasharray:none;stroke-opacity:1;paint-order:fill markers stroke" />
      <path
         d="m 181.64302,120.77413 c -0.062,-0.51668 -0.1008,-1.03666 -0.1859,-1.55004 -0.3571,-2.15408 -1.04786,-5.27301 -1.55031,-7.24222 -1.05577,-4.13779 -2.01538,-7.62155 -3.83761,-11.54527 -1.09722,-2.362579 -2.46744,-4.588513 -3.70116,-6.882771 -1.86762,-2.466977 -3.56979,-5.068416 -5.60286,-7.40093 -9.58815,-11.000393 -21.89785,-19.232113 -34.25583,-26.763406 -4.98818,-2.842307 -2.66703,-1.582261 -6.94033,-3.822446 0,0 -11.35163,7.567163 -11.35163,7.567163 v 0 c 4.89431,1.676297 2.25585,0.68843 7.88179,3.051739 1.93068,0.940239 3.89313,1.817867 5.79205,2.820723 10.96771,5.792268 21.41859,13.046035 29.1863,22.861216 1.87178,2.365158 3.33614,5.025962 5.00421,7.538942 1.06292,2.33172 2.26,4.60682 3.18875,6.99516 1.49278,3.83874 2.42073,7.67633 2.99053,11.73932 0.29374,2.09449 0.52489,5.30201 0.27879,7.55696 -0.0506,0.46359 -0.25217,0.89794 -0.37826,1.3469 0,0 13.48147,-6.27104 13.48147,-6.27104 z"
         id="path2469"
         style="fill:#ffffff;fill-opacity:1;stroke:none;stroke-width:0.264999;stroke-linejoin:round;stroke-miterlimit:4;stroke-dasharray:none;stroke-opacity:1;paint-order:fill markers stroke" />
      <path
         d="m 64.981856,48.283968 c 0.406186,-0.209177 0.806083,-0.431046 1.218555,-0.627536 2.790536,-1.329322 5.6653,-2.474584 8.460557,-3.795858 4.087021,-1.931868 5.3399,-2.633369 9.51216,-4.794713 6.207511,-3.384214 12.643244,-6.286995 19.197962,-8.919908 0,0 10.34914,-8.150353 10.34914,-8.150353 v 0 c -6.66279,2.763828 -13.25601,5.689418 -19.614882,9.108184 -5.733764,2.9142 -11.491944,5.800458 -17.578559,7.92 0,0 -11.544933,9.260184 -11.544933,9.260184 z"
         id="path2471"
         style="fill:#ffffff;fill-opacity:1;stroke:none;stroke-width:0.264999;stroke-linejoin:round;stroke-miterlimit:4;stroke-dasharray:none;stroke-opacity:1;paint-order:fill markers stroke" />
      <path
         d="m 67.663707,82.614692 c 4.66479,-0.872429 8.990515,-2.889041 13.256541,-4.886431 11.178794,-5.98289 22.162082,-12.32567 33.176932,-18.603806 3.30571,-1.90623 6.63802,-3.765087 9.9853,-5.596993 0,0 10.75783,-8.692573 10.75783,-8.692573 v 0 c -3.66959,2.117876 -7.33211,4.247898 -10.98637,6.392137 -10.74114,6.218132 -21.50287,12.416592 -32.488726,18.194094 -3.796725,1.755902 -7.630395,3.513992 -11.775312,4.273656 0,0 -11.926195,8.919916 -11.926195,8.919916 z"
         id="path2473"
         style="fill:#ffffff;fill-opacity:1;stroke:none;stroke-width:0.264999;stroke-linejoin:round;stroke-miterlimit:4;stroke-dasharray:none;stroke-opacity:1;paint-order:fill markers stroke" />
      <path
         d="m 143.3525,41.489323 c 1.34884,-2.470243 2.72409,-5.256586 2.4538,-8.170506 -0.0827,-0.892101 -0.38722,-1.74952 -0.58083,-2.62428 -0.41077,-0.923443 -0.73128,-1.892578 -1.2323,-2.770333 -1.92257,-3.368234 -4.85945,-6.088717 -8.34776,-7.788429 -1.49517,-0.728536 -3.1199,-1.153898 -4.67984,-1.730846 0,0 -10.82976,7.294628 -10.82976,7.294628 v 0 c 1.44182,0.537539 2.95161,0.919569 4.32547,1.612616 3.13082,1.579353 5.85528,4.244443 7.44216,7.375903 0.41338,0.815747 0.63618,1.714809 0.95428,2.572215 0.0881,0.786043 0.27241,1.567204 0.26438,2.358134 -0.0289,2.844646 -1.59033,5.544653 -3.38693,7.633348 0,0 13.61733,-5.76245 13.61733,-5.76245 z"
         id="path2477"
         style="fill:#ffffff;fill-opacity:1;stroke:none;stroke-width:0.264999;stroke-linejoin:round;stroke-miterlimit:4;stroke-dasharray:none;stroke-opacity:1;paint-order:fill markers stroke" />
    </g>
  </g>
</svg>
