<?xml version="1.0" encoding="UTF-8" standalone="no"?>
<!-- Created with Inkscape (http://www.inkscape.org/) -->

<svg
   xmlns:dc="http://purl.org/dc/elements/1.1/"
   xmlns:cc="http://creativecommons.org/ns#"
   xmlns:rdf="http://www.w3.org/1999/02/22-rdf-syntax-ns#"
   xmlns:svg="http://www.w3.org/2000/svg"
   xmlns="http://www.w3.org/2000/svg"
   xmlns:sodipodi="http://sodipodi.sourceforge.net/DTD/sodipodi-0.dtd"
   xmlns:inkscape="http://www.inkscape.org/namespaces/inkscape"
   width="297mm"
   height="297mm"
   viewBox="0 0 297 297"
   version="1.1"
   id="svg8"
   inkscape:version="0.92.3 (2405546, 2018-03-11)"
   sodipodi:docname="Icon.svg"
   inkscape:export-filename="/home/nathanreiner/Dokumente/C++/LibreTextus/data/Icon.png"
   inkscape:export-xdpi="96"
   inkscape:export-ydpi="96">
  <defs
     id="defs2" />
  <sodipodi:namedview
     id="base"
     pagecolor="#ffffff"
     bordercolor="#666666"
     borderopacity="1.0"
     inkscape:pageopacity="0.0"
     inkscape:pageshadow="2"
     inkscape:zoom="0.11666291"
     inkscape:cx="-1998.7978"
     inkscape:cy="-624.24227"
     inkscape:document-units="mm"
     inkscape:current-layer="g853"
     showgrid="false"
     inkscape:window-width="1920"
     inkscape:window-height="1052"
     inkscape:window-x="1600"
     inkscape:window-y="0"
     inkscape:window-maximized="1" />
  <metadata
     id="metadata5">
    <rdf:RDF>
      <cc:Work
         rdf:about="">
        <dc:format>image/svg+xml</dc:format>
        <dc:type
           rdf:resource="http://purl.org/dc/dcmitype/StillImage" />
        <dc:title />
      </cc:Work>
    </rdf:RDF>
  </metadata>
  <g
     inkscape:label="Ebene 1"
     inkscape:groupmode="layer"
     id="layer1">
    <g
       id="g853"
       transform="matrix(1.7765039,0,0,1.7765039,-78.921531,-76.037303)">
      <g
         id="g20"
         inkscape:export-xdpi="96"
         inkscape:export-ydpi="96">
        <rect
           style="opacity:1;fill:#28170b;fill-opacity:1;stroke-width:0.26458332"
           id="rect10"
           width="152.44669"
           height="152.44669"
           x="51.709503"
           y="57.552483"
           ry="10.104535" />
        <rect
           style="opacity:1;fill:#502d16;fill-opacity:1;stroke-width:0.26458332"
           id="rect12"
           width="144.53879"
           height="144.53879"
           x="51.679893"
           y="65.460381"
           ry="10.104543" />
        <g
           id="flowRoot14"
           style="font-style:normal;font-weight:normal;font-size:40px;line-height:1.25;font-family:sans-serif;letter-spacing:0px;word-spacing:0px;fill:#deaa87;fill-opacity:1;stroke:none"
           transform="matrix(2.4096046,0,0,2.4096046,-141.5274,-160.52939)"
           aria-label="LT">
          <path
             id="path15"
             style="font-style:normal;font-variant:normal;font-weight:normal;font-stretch:normal;font-family:Lora;-inkscape-font-specification:Lora;fill:#deaa87"
             d="m 88.54375,136.4593 q 1.4,-0.04 2,-0.64 0.6,-0.6 0.68,-1.4 0.08,-0.84 0.08,-2.88 v -17.28 q 0,-1.68 0.12,-2.88 l -2.88,0.16 v -1.76 h 9 v 1.32 q -1.4,0.04 -2,0.64 -0.6,0.6 -0.68,1.44 -0.08,0.8 -0.08,2.84 v 17.16 q 0,2.08 -0.12,3.12 l 7.48,-0.12 q 2.56,-0.04 3.84,-1.6 1.28,-1.6 1.28,-5.08 h 1.36 l -0.24,8.28 h -19.84 z" />
          <path
             id="path17"
             style="font-style:normal;font-variant:normal;font-weight:normal;font-stretch:normal;font-family:Lora;-inkscape-font-specification:Lora;fill:#deaa87"
             d="m 115.445,136.4593 q 1.72,-0.08 2.2,-0.96 0.52,-0.88 0.52,-2.72 v -1.24 l 0.04,-20.28 -4.12,0.04 q -2.48,0 -3.56,1.68 -1.04,1.64 -1.04,5.24 h -1.48 l 0.24,-8.44 h 23.32 l 0.24,8.44 h -1.52 q -0.04,-2.52 -0.52,-4 -0.44,-1.52 -1.56,-2.24 -1.08,-0.76 -3.12,-0.76 h -3.4 l -0.04,21.8 q 0,2.12 -0.12,3.16 l 3.32,-0.16 v 1.76 h -9.4 z" />
        </g>
        <path
           style="fill:#502d16;stroke:none;stroke-width:0.20220724px;stroke-linecap:butt;stroke-linejoin:miter;stroke-opacity:1"
           d="M 63.783015,62.576605 V 42.801652 l 9.999943,5.170482 9.999943,-5.170482 v 19.774952 z"
           id="path39"
           inkscape:connector-curvature="0"
           sodipodi:nodetypes="cccccc" />
      </g>
    </g>
  </g>
</svg>
