<?xml version="1.0" encoding="UTF-8" standalone="no"?>
<svg
   xmlns:dc="http://purl.org/dc/elements/1.1/"
   xmlns:cc="http://creativecommons.org/ns#"
   xmlns:rdf="http://www.w3.org/1999/02/22-rdf-syntax-ns#"
   xmlns:svg="http://www.w3.org/2000/svg"
   xmlns="http://www.w3.org/2000/svg"
   xmlns:sodipodi="http://sodipodi.sourceforge.net/DTD/sodipodi-0.dtd"
   xmlns:inkscape="http://www.inkscape.org/namespaces/inkscape"
   width="64mm"
   height="64mm"
   viewBox="0 0 64 64"
   version="1.1"
   id="svg8"
   inkscape:version="1.0 (6e3e5246a0, 2020-05-07)"
   sodipodi:docname="spinner.svg">
  <defs
     id="defs2" />
  <sodipodi:namedview
     id="base"
     pagecolor="#ffffff"
     bordercolor="#666666"
     borderopacity="1.0"
     inkscape:pageopacity="0.0"
     inkscape:pageshadow="2"
     inkscape:zoom="3.0134228"
     inkscape:cx="122.57953"
     inkscape:cy="137.98969"
     inkscape:document-units="mm"
     inkscape:current-layer="g840"
     inkscape:document-rotation="0"
     showgrid="false"
     inkscape:showpageshadow="false"
     inkscape:window-width="1920"
     inkscape:window-height="1043"
     inkscape:window-x="1600"
     inkscape:window-y="0"
     inkscape:window-maximized="1" />
  <metadata
     id="metadata5">
    <rdf:RDF>
      <cc:Work
         rdf:about="">
        <dc:format>image/svg+xml</dc:format>
        <dc:type
           rdf:resource="http://purl.org/dc/dcmitype/StillImage" />
        <dc:title></dc:title>
      </cc:Work>
    </rdf:RDF>
  </metadata>
  <g
     inkscape:label="Ebene 1"
     inkscape:groupmode="layer"
     id="layer1">
    <g
       transform="matrix(4,0,0,4,15.770645,15.870821)"
       id="g840">
      <path
         d="m 3.1607969,-2.0128082 a 6.0313458,6.0313458 0 0 0 -5.1986492,5.198649 h 0.8526614 a 5.188236,5.188236 0 0 1 4.3459878,-4.3470214 z m 1.5637286,0 V -1.160147 A 5.188236,5.188236 0 0 1 9.0705137,3.1858408 H 9.9231749 A 6.0313458,6.0313458 0 0 0 4.7245255,-2.0128082 Z M -2.0378523,4.7495694 A 6.0313458,6.0313458 0 0 0 3.1607969,9.9482188 V 9.0955576 A 5.188236,5.188236 0 0 1 -1.1851909,4.7495694 Z m 11.108366,0 A 5.188236,5.188236 0 0 1 4.7245255,9.096591 V 9.9482188 A 6.0313458,6.0313458 0 0 0 9.9221413,4.7495694 Z"
         style="fill:#cccccc;stroke-width:0.399818;stroke-linejoin:round;paint-order:fill markers stroke"
         id="path833" />
    </g>
  </g>
</svg>
